<svg width="512" height="512" viewBox="0 0 512 512" xmlns="http://www.w3.org/2000/svg">
  <defs>
    <linearGradient id="bg" x1="0" y1="0" x2="1" y2="1">
      <stop offset="0" stop-color="#12909B"/>
      <stop offset="1" stop-color="#0B5F6B"/>
    </linearGradient>
    <linearGradient id="foam" x1="0" y1="0" x2="0" y2="1">
      <stop offset="0" stop-color="#FFFFFF" stop-opacity=".95"/>
      <stop offset="1" stop-color="#BFEFF2" stop-opacity=".9"/>
    </linearGradient>
  </defs>

  <rect width="512" height="512" rx="112" fill="url(#bg)"/>

  <!-- người bơi: đầu, tay vươn, thân -->
  <g fill="none" stroke="url(#foam)" stroke-linecap="round" stroke-width="26">
    <path d="M150 232 q40 -34 84 -14 q30 14 60 6 q26 -7 46 -30"/>
  </g>
  <circle cx="342" cy="176" r="30" fill="#FFFFFF"/>

  <!-- ba lượn sóng nước -->
  <g fill="none" stroke="#FFFFFF" stroke-linecap="round" stroke-width="24" opacity=".92">
    <path d="M84 316 q42 -30 84 0 t84 0 t84 0 t84 0"/>
  </g>
  <g fill="none" stroke="#FFFFFF" stroke-linecap="round" stroke-width="22" opacity=".62">
    <path d="M84 382 q42 -30 84 0 t84 0 t84 0 t84 0"/>
  </g>
  <g fill="none" stroke="#FFFFFF" stroke-linecap="round" stroke-width="20" opacity=".34">
    <path d="M84 444 q42 -30 84 0 t84 0 t84 0 t84 0"/>
  </g>
</svg>
